<svg xmlns="http://www.w3.org/2000/svg" version="1.1" xmlns:xlink="http://www.w3.org/1999/xlink" xmlns:svgjs="http://svgjs.com/svgjs" width="1440" height="560" preserveAspectRatio="none" viewBox="0 0 1440 560">
    <g mask="url(&quot;#SvgjsMask1010&quot;)" fill="none">
        <rect width="1440" height="560" x="0" y="0" fill="rgba(81, 46, 95, 1)"></rect>
        <path d="M0,605.951C122.135,631.462,257.887,631.971,364.712,567.502C472.416,502.502,547.886,384.57,571.549,261.018C593.416,146.844,493.793,46.047,486.808,-69.992C478.836,-202.432,598.769,-345.351,528.282,-457.759C459.937,-566.752,293.594,-543.408,169.251,-576.415C48.621,-608.437,-70.38,-682.678,-190.429,-648.543C-310.689,-614.348,-386.612,-499.673,-459.046,-397.766C-525.961,-303.622,-566.016,-197.74,-591.002,-84.973C-617.75,35.746,-672.655,172.149,-608.78,278.02C-544.627,384.352,-387.719,374.284,-278.386,433.178C-180.247,486.043,-109.117,583.16,0,605.951" fill="#41254c"></path>
        <path d="M1440 1236.5259999999998C1566.136 1230.92 1677.587 1163.1219999999998 1781.654 1091.624 1883.074 1021.9449999999999 2001.101 949.367 2031.5140000000001 830.136 2061.3360000000002 713.226 1968.3220000000001 604.852 1935.43 488.76800000000003 1907.743 391.05600000000004 1898.147 292.935 1853.458 201.73700000000002 1795.952 84.38 1767.116-92.418 1638.714-116.75800000000004 1505.912-141.93200000000002 1425.495 37.90700000000004 1304.2350000000001 97.625 1211.196 143.445 1097.748 129.685 1014.0219999999999 190.88799999999998 917.578 261.387 819.212 350.129 797.98 467.69100000000003 776.605 586.045 855.772 694.629 903.074 805.206 951.6179999999999 918.6859999999999 982.03 1045.589 1078.254 1122.888 1178.827 1203.6799999999998 1311.122 1242.254 1440 1236.5259999999998" fill="#613772"></path>
    </g>
    <defs>
        <mask id="SvgjsMask1010">
            <rect width="1440" height="560" fill="#ffffff"></rect>
        </mask>
    </defs>
</svg>
